<svg width="32" height="32" viewBox="0 0 32 32" fill="none" xmlns="http://www.w3.org/2000/svg">
<path d="M15.9999 17.4805L7.36732 10.7412C7.36732 10.7412 6.42053 9.84264 6.08636 10.7974C5.75219 11.7521 1.01819 27.5332 1.01819 27.5332C1.01819 27.5332 0.795409 29.218 1.90929 28.488C3.02318 27.7579 15.9999 17.4805 15.9999 17.4805V17.4805Z" stroke="#4299E1" stroke-width="0.9"/>
<path d="M16 17.4805L24.6326 10.7412C24.6326 10.7412 25.5794 9.84264 25.9136 10.7974C26.2477 11.7521 30.9817 27.5332 30.9817 27.5332C30.9817 27.5332 31.2045 29.218 30.0906 28.488C28.9767 27.7579 16 17.4805 16 17.4805V17.4805Z" stroke="#4299E1" stroke-width="0.9"/>
<path d="M16 12.7829C18.9528 12.7829 21.3466 10.369 21.3466 7.39143C21.3466 4.41383 18.9528 2 16 2C13.0471 2 10.6533 4.41383 10.6533 7.39143C10.6533 10.369 13.0471 12.7829 16 12.7829Z" fill="#F56565"/>
<path d="M16.0356 21.2548L10.639 25.3418L5.24316 29.4289L10.6307 27.559L16.0174 25.69L21.4049 27.559L26.7924 29.4289H26.8272L21.4314 25.3418L16.0356 21.2548Z" fill="#4299E1"/>
<path d="M22.593 29.4289H16.0351H9.47705L12.7561 28.5138L16.0351 27.5988L19.3141 28.5138L22.593 29.4289Z" fill="#4299E1"/>
</svg>
