<svg id="logosandtypes_com" data-name="logosandtypes com" xmlns="http://www.w3.org/2000/svg" viewBox="0 0 150 150"><defs><style>.cls-1{fill:none;}.cls-2{fill:#df4f35;}</style></defs><g id="Layer_2" data-name="Layer 2"><path id="Layer_3" data-name="Layer 3" class="cls-1" d="M0,.2H150v150H0Z" transform="translate(0 -0.2)"/></g><path class="cls-2" d="M124.79,134.54,89.2,105.05,68.57,88a1.28,1.28,0,0,0-2.1,1V99.28c8,6.64,19.62,16.24,27.57,22.84-26.38,13.83-59.47-4-59.48-34.68V60.33A39.29,39.29,0,0,1,73.85,21.05a39.38,39.38,0,0,1,41,39.28V87.44c0,8.2-3.13,15.16-7.5,21.38a1.57,1.57,0,0,0,.27,2.13l5.24,4.34a1.57,1.57,0,0,0,2.28-.3c5.3-7.65,9-16.32,9-26.35V59.13A48.49,48.49,0,0,0,73.68,10.76,48.38,48.38,0,0,0,25.3,59.13V88.64c0,39.66,44.84,61.41,77.08,40.38l8.49,7a4.15,4.15,0,0,0,2.65,1h10.37A1.4,1.4,0,0,0,124.79,134.54Z" transform="translate(0 -0.2)"/><path class="cls-2" d="M98.35,90.39,68.57,65.71a1.28,1.28,0,0,0-2.1,1V77c4.2,3.44,29.67,24.29,33.2,27.26a1.87,1.87,0,0,0,2.82-.53,25.36,25.36,0,0,0,4.71-15.23V59.25c-.1-18.89-16.22-32-34.67-30.31A30.31,30.31,0,0,0,42.22,59.26V88.52A30.31,30.31,0,0,0,65,117.89a1.15,1.15,0,0,0,1.45-1.11v-7.9a.8.8,0,0,0-.51-.74,23.33,23.33,0,0,1-15.27-21.9V61.54c.9-31.06,47.14-31.07,48,0C98.61,64.51,99.06,88.06,98.35,90.39Z" transform="translate(0 -0.2)"/></svg>